<svg width="10" height="5" viewBox="0 0 10 5" fill="none" xmlns="http://www.w3.org/2000/svg">
<path d="M9.30589 4.88789L4.99956 0.902952L0.693224 4.88789C0.616287 4.95924 0.513 4.99918 0.405445 4.99918C0.297891 4.99918 0.194604 4.95924 0.117667 4.88789C0.080413 4.85324 0.0508167 4.81188 0.0306119 4.76624C0.0104071 4.72059 0 4.67158 0 4.62206C0 4.57255 0.0104071 4.52354 0.0306119 4.47789C0.0508167 4.43225 0.080413 4.39089 0.117667 4.35624L4.69886 0.116106C4.77931 0.0416632 4.88721 0 4.99956 0C5.11191 0 5.21981 0.0416632 5.30026 0.116106L9.88145 4.35542C9.91897 4.3901 9.94879 4.43156 9.96915 4.47735C9.98951 4.52315 10 4.57236 10 4.62206C10 4.67177 9.98951 4.72098 9.96915 4.76677C9.94879 4.81257 9.91897 4.85403 9.88145 4.88871C9.80451 4.96006 9.70123 5 9.59367 5C9.48612 5 9.38283 4.95924 9.30589 4.88789Z" fill="#1C1C1C"/>
<path d="M9.59375 4.98437C9.69745 4.98436 9.79714 4.94553 9.87109 4.87695C9.9069 4.84379 9.93565 4.80438 9.95508 4.76074C9.97456 4.71693 9.98437 4.66957 9.98438 4.62207C9.98438 4.57457 9.97456 4.52721 9.95508 4.4834C9.93565 4.43976 9.9069 4.40035 9.87109 4.36719L5.29004 0.12793C5.21266 0.0563291 5.10836 0.0157339 5 0.015625C4.89148 0.015625 4.78647 0.0562319 4.70898 0.12793L0.12793 4.36816C0.0924037 4.40132 0.0641732 4.44088 0.0449219 4.48438C0.025627 4.52801 0.015625 4.5748 0.015625 4.62207C0.0156258 4.66934 0.0256251 4.71613 0.0449219 4.75977C0.0641742 4.80326 0.0924009 4.84282 0.12793 4.87598C0.201857 4.94453 0.301612 4.98336 0.405273 4.9834C0.508997 4.9834 0.608649 4.94457 0.682617 4.87598L4.98926 0.891602L5 0.881836L5.00977 0.891602L9.31641 4.87598C9.39043 4.94463 9.49011 4.98437 9.59375 4.98437Z" stroke="#C1272D" stroke-opacity="0.3" stroke-width="0.03125"/>
</svg>
