<svg width="16" height="18" viewBox="0 0 16 18" fill="none" xmlns="http://www.w3.org/2000/svg">
<path d="M4.86591 4.2C4.86591 3.40435 5.19604 2.64129 5.78368 2.07868C6.37132 1.51607 7.16833 1.2 7.99937 1.2C8.83042 1.2 9.62743 1.51607 10.2151 2.07868C10.8027 2.64129 11.1328 3.40435 11.1328 4.2V4.8H12.3862V4.2C12.3862 3.08609 11.924 2.0178 11.1013 1.23015C10.2786 0.442499 9.16284 0 7.99937 0C6.83591 0 5.7201 0.442499 4.8974 1.23015C4.07471 2.0178 3.61252 3.08609 3.61252 4.2V4.8H4.86591V4.2ZM0.985429 7.6008C1.03663 7.16058 1.25557 6.75389 1.60036 6.45854C1.94515 6.1632 2.39158 5.99994 2.85423 6H13.1445C13.607 6.00023 14.0531 6.16362 14.3976 6.45894C14.7421 6.75426 14.9609 7.16078 15.0121 7.6008L15.9885 16.0008C16.0177 16.2525 15.9912 16.5072 15.9106 16.7484C15.8301 16.9895 15.6973 17.2117 15.5209 17.4004C15.3445 17.5891 15.1285 17.74 14.8871 17.8433C14.6456 17.9466 14.3841 18 14.1197 18H1.87909C1.61473 17.9999 1.35336 17.9464 1.11206 17.843C0.870754 17.7396 0.65494 17.5886 0.478702 17.4C0.302465 17.2113 0.169767 16.9892 0.0892716 16.7481C0.00877583 16.507 -0.0177083 16.2524 0.0115484 16.0008L0.985429 7.6008Z" fill="white"/>
</svg>
