<svg width="18" height="18" viewBox="0 0 18 18" fill="none" xmlns="http://www.w3.org/2000/svg">
<path d="M15.1408 13.8319L18 16.7096L16.7096 18L13.8133 15.1501C13.1728 15.5493 12.4116 15.7813 11.6039 15.7813C9.28314 15.7813 7.42651 13.9247 7.42651 11.6039C7.42651 9.28314 9.28314 7.42651 11.6039 7.42651C13.9247 7.42651 15.7813 9.28314 15.7813 11.6039C15.7813 12.4208 15.5493 13.1913 15.1408 13.8319ZM11.6039 13.9247C12.2194 13.9247 12.8097 13.6802 13.245 13.245C13.6802 12.8097 13.9247 12.2194 13.9247 11.6039C13.9247 10.9884 13.6802 10.3981 13.245 9.96288C12.8097 9.52765 12.2194 9.28314 11.6039 9.28314C10.9884 9.28314 10.3981 9.52765 9.96288 9.96288C9.52765 10.3981 9.28314 10.9884 9.28314 11.6039C9.28314 12.2194 9.52765 12.8097 9.96288 13.245C10.3981 13.6802 10.9884 13.9247 11.6039 13.9247ZM16.7096 0V1.85663H0V0H16.7096ZM0 11.1398V9.28314H5.56988V11.1398H0ZM0 6.4982V4.64157H16.7096V6.4982H14.8252C13.8876 5.91336 12.7829 5.56988 11.6039 5.56988C10.425 5.56988 9.32027 5.91336 8.38267 6.4982H0Z" fill="white"/>
</svg>
